<svg width="1135" height="203" viewBox="0 0 1135 203" fill="none" xmlns="http://www.w3.org/2000/svg">
<path d="M50.96 157.82V121.94H186.16V157.82H50.96ZM147.94 3.89999L239.2 198.9H192.14L112.32 21.84H126.88L47.06 198.9H0L91.26 3.89999H147.94ZM240.143 135.2H284.863C285.903 141.787 288.763 147.593 293.443 152.62C298.296 157.473 304.709 161.287 312.683 164.06C320.829 166.66 330.189 167.96 340.763 167.96C356.189 167.96 368.323 165.793 377.163 161.46C386.176 156.953 390.683 150.713 390.683 142.74C390.683 136.5 388.083 131.733 382.883 128.44C377.856 124.973 368.409 122.46 354.543 120.9L315.283 116.48C289.976 113.707 271.603 107.813 260.163 98.8C248.896 89.6133 243.263 76.8733 243.263 60.58C243.263 47.7533 246.989 36.8333 254.443 27.82C262.069 18.8067 272.729 11.96 286.423 7.28C300.116 2.42666 316.236 0 334.783 0C352.809 0 368.843 2.68667 382.883 8.06C396.923 13.26 408.103 20.6267 416.423 30.16C424.743 39.52 429.249 50.5267 429.943 63.18H385.223C384.356 57.46 381.756 52.52 377.422 48.36C373.263 44.0267 367.456 40.7333 360.003 38.48C352.549 36.0533 343.796 34.84 333.743 34.84C319.703 34.84 308.523 36.92 300.203 41.08C291.883 45.24 287.723 51.1333 287.723 58.76C287.723 64.6533 290.149 69.2467 295.003 72.54C300.029 75.66 308.783 78 321.263 79.56L362.083 84.5C380.109 86.4067 394.409 89.5267 404.983 93.86C415.729 98.02 423.356 103.653 427.863 110.76C432.543 117.867 434.883 126.88 434.883 137.8C434.883 150.8 430.896 162.24 422.923 172.12C415.123 181.827 404.116 189.367 389.903 194.74C375.689 200.113 359.049 202.8 339.983 202.8C320.569 202.8 303.496 200.027 288.763 194.48C274.029 188.76 262.416 180.873 253.923 170.82C245.429 160.593 240.836 148.72 240.143 135.2ZM464.585 3.89999H508.785V198.9H464.585V3.89999ZM620.585 3.89999H664.785V198.9H620.585V3.89999ZM488.765 80.86H640.085V119.6H488.765V80.86ZM736.761 157.82V121.94H871.961V157.82H736.761ZM833.741 3.89999L925.001 198.9H877.941L798.121 21.84H812.681L732.861 198.9H685.801L777.061 3.89999H833.741ZM976.672 90.48H1051.81C1061.69 90.48 1069.49 88.2267 1075.21 83.72C1081.11 79.04 1084.05 72.6267 1084.05 64.48C1084.05 56.3333 1081.11 50.0067 1075.21 45.5C1069.49 40.9933 1061.69 38.74 1051.81 38.74H970.172L990.192 16.12V198.9H945.992V3.89999H1057.01C1071.23 3.89999 1083.71 6.5 1094.45 11.7C1105.2 16.7267 1113.61 23.7467 1119.67 32.76C1125.74 41.7733 1128.77 52.3467 1128.77 64.48C1128.77 76.44 1125.74 86.9267 1119.67 95.94C1113.61 104.953 1105.2 112.06 1094.45 117.26C1083.71 122.287 1071.23 124.8 1057.01 124.8H976.672V90.48ZM1010.47 107.64H1060.91L1134.49 198.9H1082.75L1010.47 107.64Z" fill="url(#paint0_linear_12_11)"/>
<defs>
<linearGradient id="paint0_linear_12_11" x1="602.96" y1="261.9" x2="601.46" y2="-60.1" gradientUnits="userSpaceOnUse">
<stop offset="0.298077" stop-color="white"/>
<stop offset="1" stop-color="#999999"/>
</linearGradient>
</defs>
</svg>
