<svg width="1837" height="701" viewBox="0 0 1837 701" fill="none" xmlns="http://www.w3.org/2000/svg">
<path d="M0.71875 694L67.125 6.5H300.328L365.562 694H235.484L225.719 583.062H142.906L134.312 694H0.71875ZM152.672 473.297H215.172L185.094 123.688H178.844L152.672 473.297ZM555.031 700.25C492.271 700.25 446.958 684.625 419.094 653.375C391.49 622.125 377.688 572.385 377.688 504.156V436.969H513.625V522.906C513.625 538.792 515.969 551.292 520.656 560.406C525.604 569.26 534.068 573.688 546.047 573.688C558.547 573.688 567.141 570.042 571.828 562.75C576.776 555.458 579.25 543.479 579.25 526.812C579.25 505.719 577.167 488.141 573 474.078C568.833 459.755 561.542 446.214 551.125 433.453C540.969 420.432 526.776 405.328 508.547 388.141L446.828 329.547C400.734 286.057 377.688 236.318 377.688 180.328C377.688 121.734 391.229 77.0729 418.312 46.3438C445.656 15.6146 485.109 0.25 536.672 0.25C599.693 0.25 644.354 17.0469 670.656 50.6406C697.219 84.2344 710.5 135.276 710.5 203.766H570.656V156.5C570.656 147.125 567.922 139.833 562.453 134.625C557.245 129.417 550.083 126.812 540.969 126.812C530.031 126.812 521.958 129.938 516.75 136.188C511.802 142.177 509.328 149.99 509.328 159.625C509.328 169.26 511.932 179.677 517.141 190.875C522.349 202.073 532.635 214.964 548 229.547L627.297 305.719C643.182 320.823 657.766 336.839 671.047 353.766C684.328 370.432 695.005 389.964 703.078 412.359C711.151 434.495 715.188 461.578 715.188 493.609C715.188 558.193 703.208 608.844 679.25 645.562C655.552 682.021 614.146 700.25 555.031 700.25ZM745.281 694V6.5H882V252.203H946.844V6.5H1083.56V694H946.844V382.281H882V694H745.281ZM1109.75 694L1176.16 6.5H1409.36L1474.59 694H1344.52L1334.75 583.062H1251.94L1243.34 694H1109.75ZM1261.7 473.297H1324.2L1294.12 123.688H1287.88L1261.7 473.297ZM1500.78 694V6.5H1711.72C1746.88 6.5 1773.44 14.5729 1791.41 30.7188C1809.38 46.6042 1821.35 69 1827.34 97.9062C1833.59 126.552 1836.72 160.276 1836.72 199.078C1836.72 236.578 1831.9 266.526 1822.27 288.922C1812.89 311.318 1795.05 326.812 1768.75 335.406C1790.36 339.833 1805.47 350.641 1814.06 367.828C1822.92 384.755 1827.34 406.76 1827.34 433.844V694H1691.8V424.859C1691.8 404.807 1687.63 392.438 1679.3 387.75C1671.22 382.802 1658.07 380.328 1639.84 380.328V694H1500.78ZM1640.62 261.188H1673.83C1692.84 261.188 1702.34 240.484 1702.34 199.078C1702.34 172.255 1700.26 154.677 1696.09 146.344C1691.93 138.01 1684.11 133.844 1672.66 133.844H1640.62V261.188Z" fill="white"/>
</svg>
