<svg width="1840" height="688" viewBox="0 0 1840 688" fill="none" xmlns="http://www.w3.org/2000/svg">
<path d="M0 687.5V0H136.719V245.703H201.562V0H338.281V687.5H201.562V375.781H136.719V687.5H0ZM364.469 687.5L430.875 0H664.078L729.312 687.5H599.234L589.469 576.562H506.656L498.062 687.5H364.469ZM516.422 466.797H578.922L548.844 117.188H542.594L516.422 466.797ZM755.5 687.5V0H964.875L1022.69 419.141L1080.11 0H1291.44V687.5H1165.66V192.188L1086.75 687.5H963.312L879.719 192.188V687.5H755.5ZM1330.12 687.5V0H1462.94V687.5H1330.12ZM1501.62 687.5V0H1690.69C1740.17 0 1777.41 13.8021 1802.41 41.4062C1827.41 68.75 1839.91 108.854 1839.91 161.719V483.594C1839.91 548.698 1828.45 598.958 1805.53 634.375C1782.88 669.792 1743.03 687.5 1686 687.5H1501.62ZM1639.91 566.016H1663.73C1688.99 566.016 1701.62 553.776 1701.62 529.297V174.609C1701.62 151.693 1698.5 136.979 1692.25 130.469C1686.26 123.698 1673.89 120.312 1655.14 120.312H1639.91V566.016Z" fill="white"/>
</svg>
